<svg version="1.0" xmlns="http://www.w3.org/2000/svg"
 width="1774.000000pt" height="590.000000pt" viewBox="0 0 1774.000000 590.000000"
 preserveAspectRatio="xMidYMid meet">

<g transform="translate(0.000000,590.000000) scale(0.100000,-0.100000)"
fill="#666" stroke="none">
<path fill="#C00" d="M12496 5763 c-2 -10 -25 -146 -51 -303 -25 -157 -49 -291 -53 -298
-4 -7 -54 -29 -112 -48 -58 -19 -164 -64 -236 -99 l-132 -63 -256 180 -256
179 -365 -358 c-201 -197 -363 -363 -361 -369 2 -5 85 -122 184 -258 l181
-248 -38 -77 c-48 -94 -126 -290 -142 -353 -6 -26 -16 -51 -23 -56 -6 -5 -141
-28 -301 -51 -159 -24 -298 -45 -307 -48 -17 -4 -18 -37 -18 -513 0 -476 1
-509 18 -514 9 -2 145 -25 302 -51 157 -25 291 -49 298 -53 7 -4 29 -54 48
-112 19 -58 64 -164 99 -237 l63 -132 -185 -261 -186 -262 359 -359 c197 -198
364 -357 369 -355 6 2 124 85 264 184 l254 181 78 -40 c96 -48 250 -110 344
-138 l70 -20 49 -293 c27 -161 51 -301 54 -311 4 -16 35 -17 515 -15 l511 3
52 308 c28 169 55 312 60 316 5 5 41 19 79 31 80 26 252 98 337 141 l58 29
261 -186 262 -186 359 359 c197 197 358 361 358 364 0 4 -83 123 -184 265
l-183 258 59 121 c32 66 77 174 101 240 l42 119 305 47 c168 26 306 48 308 48
1 1 2 230 2 510 0 477 -1 510 -17 515 -10 2 -146 25 -303 51 -157 25 -291 49
-298 53 -7 4 -31 61 -53 127 -23 66 -67 173 -99 237 l-57 118 176 243 c97 133
181 248 185 255 9 15 -701 745 -718 739 -7 -3 -126 -84 -265 -180 l-254 -176
-79 40 c-87 44 -263 117 -345 143 -30 10 -54 25 -57 34 -3 9 -26 141 -51 292
-25 151 -48 283 -51 293 -5 16 -38 17 -514 17 -476 0 -509 -1 -514 -17z m701
-1728 c445 -84 784 -422 869 -863 19 -97 18 -289 -2 -392 -40 -212 -144 -408
-298 -560 -137 -135 -298 -228 -481 -277 -92 -25 -115 -27 -285 -27 -173 0
-191 2 -275 28 -234 71 -404 182 -541 351 -109 134 -174 260 -216 419 -30 114
-36 338 -14 459 67 353 309 654 640 794 181 77 416 103 603 68z"/>
<path  d="M850 4775 c-158 -18 -167 -20 -265 -66 -238 -112 -366 -291 -436
-614 -17 -78 -26 -3143 -9 -3282 15 -128 21 -167 30 -178 4 -5 13 -31 21 -57
7 -27 17 -48 21 -48 4 0 8 -7 8 -15 0 -9 8 -27 17 -41 9 -14 24 -40 33 -57 33
-62 125 -154 200 -200 42 -26 83 -47 91 -47 9 0 19 -3 23 -7 18 -18 111 -32
217 -33 124 0 154 6 257 52 139 63 299 225 366 371 30 64 49 47 72 -63 3 -14
9 -34 14 -45 5 -11 11 -33 15 -50 3 -16 10 -46 15 -65 5 -19 13 -53 18 -76 5
-22 12 -46 16 -52 5 -9 64 -12 202 -12 l194 0 0 1380 0 1380 -485 0 -485 0 2
-347 3 -348 153 -3 152 -3 -3 -612 c-2 -349 -7 -626 -12 -644 -31 -101 -118
-163 -229 -163 -98 0 -161 37 -194 113 -7 15 -18 39 -24 54 -18 36 -19 2927
-2 2964 6 13 17 38 25 54 36 79 132 123 224 103 147 -32 174 -119 175 -550 l0
-268 330 0 331 0 -4 393 c-4 365 -11 479 -35 567 -27 98 -74 206 -112 254 -87
110 -201 190 -320 225 -95 27 -119 31 -243 41 -155 12 -217 11 -367 -5z"/>
<path d="M2250 2465 l0 -2275 805 0 805 0 0 345 0 345 -457 2 -458 3 0 655 0
655 343 3 342 2 0 345 0 345 -342 2 -343 3 0 590 0 590 438 3 437 2 0 330 0
330 -785 0 -785 0 0 -2275z"/>
<path d="M4552 4728 c-5 -7 -12 -44 -15 -83 -3 -38 -10 -108 -16 -155 -15
-125 -40 -333 -52 -430 -6 -47 -15 -120 -20 -162 -5 -43 -13 -114 -19 -158
-23 -185 -31 -249 -41 -330 -10 -84 -22 -181 -39 -315 -16 -131 -43 -349 -59
-490 -17 -143 -41 -343 -52 -430 -6 -44 -15 -115 -20 -157 -5 -43 -14 -115
-19 -160 -6 -46 -15 -121 -21 -168 -10 -84 -22 -181 -39 -315 -14 -110 -38
-307 -59 -485 -14 -123 -41 -342 -52 -435 -11 -93 -29 -247 -29 -257 0 -5 137
-8 304 -8 l304 0 6 23 c4 12 11 72 16 132 5 61 16 178 24 260 8 83 20 202 26
266 6 63 14 129 19 145 l7 29 250 0 249 0 7 -65 c16 -139 29 -259 38 -340 5
-47 14 -128 20 -180 6 -52 13 -124 16 -160 3 -36 7 -75 10 -87 l4 -23 330 0
330 0 0 28 c-1 15 -5 61 -11 102 -5 41 -14 111 -20 155 -25 195 -37 288 -58
450 -5 39 -14 105 -20 148 -19 133 -28 205 -60 452 -5 44 -17 132 -25 195 -9
63 -20 156 -26 205 -15 121 -42 329 -60 465 -5 36 -14 103 -20 150 -6 47 -16
119 -21 160 -6 41 -14 104 -19 140 -5 36 -13 101 -19 145 -38 283 -45 335 -92
710 -20 159 -34 268 -59 455 -5 36 -14 103 -20 150 -6 47 -15 114 -20 150 -5
36 -13 101 -18 145 -6 44 -13 95 -17 113 l-7 32 -403 0 c-310 0 -405 -3 -413
-12z m412 -1470 c4 -29 12 -92 17 -140 5 -49 14 -128 19 -178 6 -49 15 -132
20 -182 13 -118 28 -249 40 -360 6 -49 14 -127 19 -175 5 -49 14 -128 20 -178
15 -133 30 -278 31 -297 0 -17 -15 -18 -176 -18 l-176 0 6 78 c3 42 10 118 16
167 12 114 28 264 39 380 5 50 12 113 15 140 4 28 16 142 27 255 11 113 25
246 30 295 5 50 12 119 15 155 10 124 26 148 38 58z"/>
<path d="M6110 2466 l0 -2276 350 0 350 0 0 1015 0 1015 121 0 c214 0 263 -28
298 -173 8 -33 11 -281 11 -853 0 -538 4 -820 11 -848 19 -75 30 -111 41 -133
l11 -23 344 0 c327 0 343 1 343 18 0 11 -7 32 -14 48 -8 16 -23 56 -33 89 -16
55 -18 142 -23 1010 -4 523 -10 964 -14 980 -8 30 -16 53 -38 103 -20 42 -118
141 -170 170 -27 15 -48 32 -48 38 0 6 19 24 42 39 48 32 74 57 106 102 35 49
82 143 82 163 0 11 4 21 9 24 19 12 24 112 28 646 3 383 1 574 -7 615 -14 77
-30 135 -41 157 -5 10 -9 25 -9 33 0 8 -4 15 -10 15 -5 0 -10 7 -10 16 0 22
-35 71 -89 124 -57 55 -203 130 -254 130 -13 0 -29 6 -35 13 -10 9 -164 13
-682 15 l-670 4 0 -2276z m936 1653 c32 -6 70 -16 84 -22 33 -16 70 -53 70
-70 0 -7 3 -17 7 -21 4 -4 13 -28 20 -54 16 -63 18 -801 2 -869 -26 -106 -77
-175 -150 -200 -20 -8 -84 -13 -152 -13 l-117 0 0 623 c0 343 3 627 7 630 10
11 164 8 229 -4z"/>
<path d="M8220 2466 l0 -2276 608 0 c640 0 684 3 829 48 33 11 75 29 91 41 17
11 35 21 40 21 26 0 172 169 172 199 0 6 3 11 8 11 4 0 13 15 20 32 8 18 18
44 24 58 19 44 25 64 36 105 5 22 16 63 23 90 16 66 25 1105 10 1285 -15 184
-20 208 -52 272 -5 10 -9 25 -9 33 0 8 -4 15 -10 15 -5 0 -10 5 -10 11 0 18
-61 100 -106 143 -23 23 -64 52 -91 66 -51 26 -83 49 -83 59 0 3 15 13 32 20
52 23 169 149 202 216 37 77 42 91 55 145 25 111 33 302 28 660 -8 457 -19
565 -68 662 -5 10 -9 23 -9 28 0 17 -71 123 -99 148 -69 62 -185 132 -217 132
-8 0 -22 4 -32 9 -68 34 -83 34 -739 39 l-653 4 0 -2276z m948 1653 c70 -16
109 -36 130 -67 54 -79 65 -174 59 -537 -5 -292 -10 -369 -26 -410 -53 -139
-81 -155 -276 -158 l-140 -2 -3 580 c-1 319 0 586 3 593 6 16 186 17 253 1z
m97 -1881 c45 -24 74 -59 95 -119 19 -51 20 -81 20 -581 0 -340 -4 -529 -10
-533 -5 -3 -10 -14 -10 -24 0 -10 -7 -32 -16 -49 -37 -76 -116 -102 -303 -102
l-131 0 0 708 c0 390 3 712 8 716 4 5 77 6 162 4 116 -3 162 -8 185 -20z"/>
<path d="M15940 3470 c0 -6 4 -18 9 -28 5 -9 15 -37 21 -62 7 -25 16 -54 20
-65 4 -11 13 -40 20 -65 7 -25 16 -56 21 -70 7 -21 45 -152 80 -277 5 -18 14
-50 20 -70 6 -21 13 -50 16 -66 3 -15 9 -30 14 -33 5 -3 9 -16 9 -30 0 -13 4
-32 9 -42 5 -9 15 -37 21 -62 7 -25 16 -54 20 -65 4 -11 13 -40 20 -65 7 -25
16 -56 21 -70 5 -14 22 -74 39 -135 18 -60 35 -123 40 -140 46 -160 49 -176
40 -219 -5 -23 -12 -54 -15 -71 -4 -16 -10 -39 -15 -50 -5 -11 -11 -31 -13
-45 -5 -23 -25 -100 -79 -300 -11 -41 -24 -91 -30 -110 -5 -19 -13 -51 -18
-70 -5 -19 -14 -53 -20 -75 -7 -22 -14 -55 -17 -73 -3 -18 -9 -35 -14 -38 -5
-3 -9 -18 -9 -34 0 -16 -4 -31 -9 -34 -5 -3 -11 -20 -14 -38 -7 -39 -19 -91
-42 -173 -42 -155 -58 -213 -65 -245 -5 -19 -14 -53 -20 -75 -7 -22 -14 -55
-17 -73 -3 -18 -9 -35 -14 -38 -5 -3 -9 -18 -9 -34 0 -16 -4 -31 -9 -34 -5 -3
-11 -20 -13 -38 -3 -18 -8 -41 -13 -50 -7 -17 11 -18 292 -18 l299 0 13 47 c7
27 17 58 22 71 5 13 9 34 9 47 0 13 5 27 10 30 6 3 10 19 10 35 0 16 4 31 9
34 5 3 11 20 14 38 3 18 10 51 17 73 6 22 15 56 20 75 4 19 16 62 25 95 9 33
30 112 47 175 16 63 34 131 40 150 5 19 12 49 15 65 6 34 31 67 44 59 5 -3 9
-20 9 -39 0 -19 5 -37 10 -40 6 -3 10 -21 10 -40 0 -19 4 -36 9 -39 5 -3 11
-20 14 -38 5 -30 10 -52 37 -158 4 -19 22 -91 39 -160 17 -69 38 -152 47 -185
23 -89 35 -136 40 -170 3 -16 9 -39 14 -50 5 -11 10 -31 12 -45 l3 -25 309 -3
308 -2 -5 22 c-3 13 -9 37 -12 53 -4 17 -10 39 -15 50 -5 11 -11 31 -14 45 -2
14 -9 41 -15 60 -13 46 -81 305 -91 350 -5 19 -14 53 -20 75 -6 22 -14 51 -16
65 -3 14 -9 34 -14 45 -5 11 -11 31 -14 45 -3 14 -8 39 -11 55 -4 17 -10 39
-15 50 -5 11 -11 31 -14 45 -2 14 -9 41 -14 60 -6 19 -24 89 -42 155 -17 66
-43 163 -57 215 -14 52 -27 106 -30 120 -2 14 -8 34 -13 45 -5 11 -11 31 -14
45 -2 14 -10 43 -17 65 -16 51 -16 149 0 200 7 22 15 51 17 65 3 14 9 34 14
45 5 11 11 31 14 45 2 14 9 41 14 60 6 19 19 69 31 110 11 41 27 102 36 135 9
33 26 94 36 135 22 81 34 125 50 180 6 19 13 50 16 68 3 18 9 35 14 38 5 3 9
18 9 34 0 16 4 31 9 34 5 3 11 20 14 38 2 18 12 60 21 93 42 151 79 292 84
318 l4 27 -290 0 -290 0 -5 -32 c-6 -33 -17 -86 -35 -163 -5 -22 -22 -96 -37
-165 -36 -167 -45 -208 -57 -255 -5 -22 -13 -59 -19 -82 -5 -24 -14 -64 -20
-90 -6 -27 -13 -65 -16 -86 -5 -35 -26 -58 -40 -44 -3 4 -9 24 -14 47 -5 22
-13 57 -19 78 -5 20 -13 55 -19 77 -56 234 -105 425 -122 481 -5 17 -9 42 -9
57 0 14 -4 29 -10 32 -5 3 -10 21 -10 39 0 17 -4 36 -9 41 -5 6 -11 21 -13 35
l-3 25 -317 3 c-213 1 -318 -1 -318 -8z"/>
</g>
</svg>
