<svg version="1.0" xmlns="http://www.w3.org/2000/svg" width="720.000000pt" height="240.000000pt" viewBox="0 0 720.000000 240.000000" preserveAspectRatio="xMidYMid meet">
  <g transform="translate(0.000000,240.000000) scale(0.100000,-0.100000)" fill="#CC0000" stroke="none">
    <path d="M5251 2197 c-52 -163 -204 -426 -397 -687 -181 -244 -233 -329 -287 -465 -118 -297 -76 -581 112 -774 98 -100 225 -168 391 -208 113 -27 317 -24 435 6 468 120 658 515 474 986 -47 121 -112 229 -237 394 -212 280 -370 546 -431 725 -16 48 -31 89 -33 91 -2 3 -15 -28 -27 -68z"/>
  </g>
  <g transform="translate(0.000000,240.000000) scale(0.100000,-0.100000)" fill="#666666" stroke="none">
    <path d="M495 1817 c-144 -38 -214 -124 -235 -288 -13 -106 -13 -1080 0 -1172 24 -162 123 -257 270 -257 98 1 176 43 241 133 32 44 29 46 59 -51 l18 -57 81 -3 81 -3 0 516 0 515 -200 0 -200 0 0 -130 0 -130 65 0 65 0 0 -220 c0 -234 -7 -277 -48 -299 -29 -16 -84 -14 -109 4 -40 28 -44 90 -41 633 3 501 3 511 24 539 22 29 58 39 101 28 39 -9 53 -59 53 -185 l0 -110 136 0 136 0 -4 168 c-3 147 -7 173 -27 218 -28 63 -71 106 -135 134 -61 28 -253 37 -331 17z"/>
    <path d="M1140 965 l0 -845 325 0 325 0 0 130 0 130 -185 0 -185 0 0 245 0 245 140 0 140 0 0 125 0 124 -137 3 -138 3 -3 223 -2 222 180 0 180 0 0 120 0 120 -320 0 -320 0 0 -845z"/>
    <path d="M2086 1788 c-3 -13 -35 -252 -71 -533 -61 -470 -137 -1024 -150 -1103 l-6 -32 129 0 129 0 12 113 c6 61 14 134 18 160 l6 48 101 -3 101 -3 11 -90 c6 -49 14 -120 18 -157 l8 -68 138 0 139 0 -5 32 c-25 162 -67 452 -146 1005 l-93 653 -167 0 c-166 0 -168 0 -172 -22z m179 -570 c16 -120 55 -467 55 -495 l0 -33 -64 0 c-36 0 -67 3 -70 8 -7 11 57 562 65 562 4 0 10 -19 14 -42z"/>
    <path d="M2750 966 l0 -846 140 0 140 0 0 381 0 382 67 -6 c108 -8 103 8 104 -361 0 -211 4 -324 13 -351 l12 -40 143 -3 143 -3 -7 23 c-5 13 -11 192 -15 398 -4 237 -10 384 -17 401 -12 28 -77 89 -95 89 -6 0 7 16 29 35 70 59 78 96 78 340 0 233 -9 285 -56 335 -59 61 -75 64 -391 68 l-288 3 0 -845z m429 588 c19 -25 21 -40 21 -190 0 -221 -10 -243 -112 -244 l-58 0 0 230 0 230 64 0 c58 0 67 -3 85 -26z"/>
    <path d="M3620 965 l0 -847 278 4 c306 4 324 7 390 71 44 42 68 89 81 162 14 76 14 459 0 524 -13 62 -58 126 -104 148 l-34 16 49 44 c70 63 75 84 75 323 0 271 -16 318 -124 369 -56 26 -58 26 -333 29 l-278 3 0 -846z m431 596 c23 -18 24 -25 27 -171 4 -171 1 -191 -30 -220 -17 -16 -35 -20 -85 -20 l-63 0 0 215 0 215 64 0 c48 0 70 -5 87 -19z m14 -696 c25 -24 25 -24 25 -235 l0 -212 -29 -29 c-27 -26 -36 -29 -95 -29 l-66 0 0 265 0 265 70 0 c62 0 74 -3 95 -25z"/>
  </g>
  <g transform="translate(0.000000,240.000000) scale(0.100000,-0.100000)" fill="#666666" stroke="none">
    <path d="M6143 1093 c2 -10 46 -115 98 -233 51 -118 92 -222 91 -230 -1 -18 -211 -501 -223 -515 -5 -5 -9 -15 -9 -22 0 -11 29 -13 142 -11 l141 3 66 178 c36 97 68 177 72 177 3 0 35 -80 71 -177 l65 -178 147 -3 148 -3 -7 22 c-4 12 -30 72 -57 133 -100 224 -168 385 -168 400 0 15 75 189 154 359 25 54 46 103 46 108 0 6 -54 8 -137 7 l-136 -3 -51 -147 c-28 -81 -55 -146 -61 -145 -9 3 -30 55 -89 220 l-28 77 -140 0 c-129 0 -140 -1 -135 -17z"/>
  </g>
</svg>