<svg id="Layer_1" data-name="Layer 1" xmlns="http://www.w3.org/2000/svg" viewBox="0 0 248.43 80.95"><defs><style>.cls-1{fill:#c00;}.cls-2{fill:#5e5f61;}</style></defs><path class="cls-1" d="M62.67,63.74c-16.07-22.63-16.07-32-16.07-32s0,9.42-16.09,32.05c-19,26.82-5.6,48.6,16.09,48.6S81.73,90.56,62.67,63.74Z" transform="translate(-21.4 -31.69)"/><path class="cls-2" d="M269.15,42.23a5.62,5.62,0,0,1-2.3.35h-4.92c-1,0-1.39.34-1.39,1.24v1.73l.56-.31a2.91,2.91,0,0,1,1.44-.43,2,2,0,0,1,2.21,2.28c0,3-2.55,5.19-6.07,5.19s-5.79-2.06-5.79-5.26c0-2.88,1.88-4.65,5-4.75h.16l1-2.35-.65.12a4,4,0,0,1-3.16-.56,2.06,2.06,0,0,1-.73-1.69c0-1.75,1.45-2.92,3.63-2.92a3.55,3.55,0,0,1,2.42.76L261,36l.59-1.8a1.35,1.35,0,0,0,.09-.47c0-.76-1.7-1.23-3.27-1.23-3.77,0-6.5,2.28-6.5,5.43a3.73,3.73,0,0,0,1.75,3.3A6.35,6.35,0,0,0,250.11,47c0,4.42,3.52,7.64,8.37,7.64,5.1,0,8.81-3.17,8.81-7.54a4.08,4.08,0,0,0-.58-2.2h.56c1,0,1.72,0,2-1.06l.52-1.85Z" transform="translate(-21.4 -31.69)"/><path class="cls-2" d="M87.44,54.46V33h2.68V52.08h10v2.38Z" transform="translate(-21.4 -31.69)"/><path class="cls-2" d="M100.2,54.57H87.33V32.89h2.9V52h10Zm-12.65-.22H100V52.19H90V33.11H87.55Z" transform="translate(-21.4 -31.69)"/><path class="cls-2" d="M105.27,54.46V33h14.06v2.38H107.94V42.3H119.1v2.38H107.94v7.4h11.39v2.38Z" transform="translate(-21.4 -31.69)"/><path class="cls-2" d="M119.44,54.57H105.16V32.89h14.28v2.6H108.05v6.7h11.17v2.6H108.05V52h11.39Zm-14.06-.22h13.84V52.19H107.83V44.57H119V42.41H107.83V35.27h11.39V33.11H105.38Z" transform="translate(-21.4 -31.69)"/><path class="cls-2" d="M124.06,46.13V33h2.7V46.06c0,3.93,2.09,6.41,6,6.41s6.08-2.48,6.08-6.41V33h2.7V46.1c0,5.34-3,8.75-8.78,8.75S124.06,51.41,124.06,46.13Z" transform="translate(-21.4 -31.69)"/><path class="cls-2" d="M132.81,55c-5.63,0-8.86-3.22-8.86-8.83V32.89h2.92V46.06c0,4,2.17,6.3,5.94,6.3s6-2.3,6-6.3V32.89h2.92V46.1C141.7,51.73,138.46,55,132.81,55Zm-8.64-21.85v13c0,5.47,3.15,8.61,8.64,8.61s8.67-3.15,8.67-8.64v-13H139v13c0,4.08-2.31,6.52-6.19,6.52s-6.16-2.38-6.16-6.52v-13Z" transform="translate(-21.4 -31.69)"/><path class="cls-2" d="M159.74,54.46l-8.14-9.65-2.16,2.45v7.2h-2.67V33h2.67V44.07L158.93,33h3.35l-8.94,10.17,9.74,11.29Z" transform="translate(-21.4 -31.69)"/><path class="cls-2" d="M163.33,54.57h-3.64l0,0L151.6,45l-2,2.32v7.27h-2.89V32.89h2.89V43.77l9.33-10.88h3.64l-9,10.28Zm-3.54-.22h3.05l-9.65-11.18.06-.07,8.79-10H159l-9.65,11.26V33.11h-2.45V54.35h2.45V47.21l0,0,2.24-2.54.08.1Z" transform="translate(-21.4 -31.69)"/><path class="cls-2" d="M167.07,54.46V33h14.06v2.38H169.74V42.3h11.17v2.38H169.74v7.4h11.39v2.38Z" transform="translate(-21.4 -31.69)"/><path class="cls-2" d="M181.24,54.57H167V32.89h14.28v2.6H169.85v6.7H181v2.6H169.85V52h11.39Zm-14.06-.22H181V52.19H169.63V44.57H180.8V42.41H169.63V35.27H181V33.11H167.18Z" transform="translate(-21.4 -31.69)"/><path class="cls-2" d="M204.84,54.46V36.41l-7.27,18.05h-1.09l-7.31-18.05V54.46H186.5V33h3.83L197,49.54,203.69,33h3.83V54.46Z" transform="translate(-21.4 -31.69)"/><path class="cls-2" d="M207.63,54.57h-2.9V37l-7.08,17.59H196.4l0-.07L189.28,37V54.57h-2.89V32.89h4l0,.07L197,49.24l6.59-16.35h4ZM205,54.35h2.45V33.11h-3.65L197,49.84l-6.76-16.73h-3.65V54.35h2.45V35.84l7.49,18.51h.95L205,35.84Z" transform="translate(-21.4 -31.69)"/><path class="cls-2" d="M212.69,54.46V33h2.67V54.46Z" transform="translate(-21.4 -31.69)"/><path class="cls-2" d="M215.47,54.57h-2.89V32.89h2.89Zm-2.67-.22h2.45V33.11H212.8Z" transform="translate(-21.4 -31.69)"/><path class="cls-2" d="M236.82,54.46l-1.89-4.79H224.24l-1.9,4.79h-3.05L227.94,33h3.32l8.62,21.46Zm-7.24-18.73-4.53,11.59h9.1Z" transform="translate(-21.4 -31.69)"/><path class="cls-2" d="M240.05,54.57h-3.3l0-.07-1.87-4.72H224.32l-1.9,4.79h-3.3l.06-.15,8.69-21.53h3.46l0,.07Zm-3.15-.22h2.82l-8.54-21.24H228l-8.57,21.24h2.82l1.9-4.79H235l0,.07Zm-2.59-6.92h-9.43l.06-.15,4.64-11.85Zm-9.1-.22H234L229.58,36Z" transform="translate(-21.4 -31.69)"/><path class="cls-2" d="M87.44,83.3V61.84h2.68V80.92h10V83.3Z" transform="translate(-21.4 -31.69)"/><path class="cls-2" d="M100.2,83.41H87.33V61.73h2.9V80.81h10Zm-12.65-.22H100V81H90V62H87.55Z" transform="translate(-21.4 -31.69)"/><path class="cls-2" d="M107.55,83.3V74.22L99.09,61.84h3.12l6.66,10,6.66-10h3.12l-8.43,12.38V83.3Z" transform="translate(-21.4 -31.69)"/><path class="cls-2" d="M110.33,83.41h-2.89V74.26L98.88,61.73h3.39l0,0,6.57,9.84,6.6-9.88h3.39l-8.53,12.53Zm-2.67-.22h2.45v-9L118.45,62h-2.86L108.87,72l-.09-.14L102.15,62H99.3l8.36,12.24Z" transform="translate(-21.4 -31.69)"/><path class="cls-2" d="M141.4,83.3v-18l-7.27,18H133l-7.3-18v18h-2.67V61.84h3.83l6.69,16.54,6.66-16.54h3.83V83.3Z" transform="translate(-21.4 -31.69)"/><path class="cls-2" d="M144.18,83.41h-2.89V65.82L134.2,83.41H133l0-.07-7.09-17.52V83.41H123V61.73h4l0,.06,6.59,16.29,6.59-16.35h4Zm-2.67-.22H144V62h-3.64l-6.74,16.72-.1-.25L126.81,62h-3.64V83.19h2.45V64.68l7.49,18.51h.94l7.46-18.51Z" transform="translate(-21.4 -31.69)"/><path class="cls-2" d="M150.69,83.3V61.84h8.63c4.31,0,6.73,3,6.73,6.46a6.31,6.31,0,0,1-6.73,6.47h-5.95V83.3Zm12.59-15A4,4,0,0,0,159,64.22h-5.63v8.17H159A4,4,0,0,0,163.28,68.3Z" transform="translate(-21.4 -31.69)"/><path class="cls-2" d="M153.48,83.41h-2.9V61.73h8.74c4,0,6.84,2.7,6.84,6.57s-2.82,6.58-6.84,6.58h-5.84Zm-2.67-.22h2.45V74.66h6.06c3.89,0,6.61-2.61,6.61-6.36S163.21,62,159.32,62h-8.51ZM159,72.5h-5.74V64.11H159a4.2,4.2,0,1,1,0,8.39Zm-5.52-.22H159a4,4,0,1,0,0-8h-5.52Z" transform="translate(-21.4 -31.69)"/><path class="cls-2" d="M186.41,83.3V73.45H173.86V83.3h-2.67V61.84h2.67v9.23h12.55V61.84h2.67V83.3Z" transform="translate(-21.4 -31.69)"/><path class="cls-2" d="M189.19,83.41H186.3V73.56H174v9.85h-2.89V61.73H174V71H186.3V61.73h2.89Zm-2.67-.22H189V62h-2.45v9.23H173.75V62H171.3V83.19h2.45V73.34h12.77Z" transform="translate(-21.4 -31.69)"/><path class="cls-2" d="M194.84,72.58c0-6.33,4.31-11.1,10.65-11.1s10.68,4.77,10.68,11.1-4.34,11.11-10.68,11.11S194.84,78.92,194.84,72.58Zm18.56,0c0-5-3.12-8.72-7.91-8.72s-7.89,3.7-7.89,8.72,3.06,8.72,7.89,8.72S213.4,77.57,213.4,72.58Z" transform="translate(-21.4 -31.69)"/><path class="cls-2" d="M205.49,83.8c-6.24,0-10.76-4.72-10.76-11.22s4.52-11.21,10.76-11.21,10.79,4.72,10.79,11.21S211.74,83.8,205.49,83.8Zm0-22.21c-6.11,0-10.54,4.63-10.54,11s4.43,11,10.54,11,10.57-4.63,10.57-11S211.61,61.59,205.49,61.59Zm0,19.83c-4.71,0-8-3.64-8-8.84s3.22-8.83,8-8.83,8,3.63,8,8.83S210.21,81.42,205.49,81.42Zm0-17.45c-4.65,0-7.77,3.46-7.77,8.61s3.19,8.61,7.77,8.61,7.8-3.54,7.8-8.61S210.08,64,205.49,64Z" transform="translate(-21.4 -31.69)"/><path class="cls-2" d="M239.62,83.3v-18l-7.27,18h-1.09l-7.31-18v18h-2.67V61.84h3.83l6.69,16.54,6.67-16.54h3.83V83.3Z" transform="translate(-21.4 -31.69)"/><path class="cls-2" d="M242.41,83.41h-2.9V65.82l-7.08,17.59h-1.25l0-.07-7.09-17.52V83.41h-2.89V61.73h4l0,.06,6.59,16.29,6.59-16.35h4Zm-2.68-.22h2.45V62h-3.64L231.8,78.67,225,62h-3.65V83.19h2.45V64.68l7.49,18.51h.95l7.45-18.51Z" transform="translate(-21.4 -31.69)"/><path class="cls-2" d="M264.4,83.3l-1.9-4.8H251.82l-1.9,4.8h-3.06l8.66-21.46h3.31l8.62,21.46Zm-7.24-18.73-4.54,11.59h9.11Z" transform="translate(-21.4 -31.69)"/><path class="cls-2" d="M267.62,83.41h-3.3l0-.07-1.87-4.72H251.89L250,83.41H246.7l.06-.15,8.68-21.53h3.46l0,.06Zm-3.15-.22h2.82L258.75,62h-3.16L247,83.19h2.82l1.9-4.8h10.83l0,.07Zm-2.58-6.92h-9.43l.06-.16,4.64-11.84ZM252.78,76h8.78l-4.4-11.17Z" transform="translate(-21.4 -31.69)"/><path class="cls-2" d="M86.51,109.11l1.61-2.06a8.84,8.84,0,0,0,6.72,3.09c3.83,0,5.06-2.06,5.06-3.73,0-5.54-12.71-2.45-12.71-10.1,0-3.54,3.15-6,7.4-6a10.07,10.07,0,0,1,7.59,3l-1.61,2a8.11,8.11,0,0,0-6.21-2.58c-2.54,0-4.41,1.39-4.41,3.41,0,4.83,12.71,2.06,12.71,10.08,0,3.09-2.12,6.3-7.91,6.3A10.67,10.67,0,0,1,86.51,109.11Z" transform="translate(-21.4 -31.69)"/><path class="cls-2" d="M94.75,112.63a10.89,10.89,0,0,1-8.32-3.44l-.06-.07,1.75-2.24.08.1a8.79,8.79,0,0,0,6.64,3c3.65,0,5-1.87,5-3.62,0-2.46-2.68-3.18-5.51-3.94-3.37-.91-7.2-1.94-7.2-6.16,0-3.54,3.16-6.1,7.51-6.1a10.26,10.26,0,0,1,7.67,3.06l.07.07-1.75,2.14-.09-.1a8,8,0,0,0-6.13-2.54c-2.53,0-4.3,1.36-4.3,3.3s2.36,2.67,5.08,3.41c3.58,1,7.63,2.07,7.63,6.67C102.77,109.32,100.67,112.63,94.75,112.63Zm-8.1-3.52a10.71,10.71,0,0,0,8.1,3.3c5.75,0,7.8-3.2,7.8-6.19,0-4.43-4-5.51-7.46-6.46-2.82-.76-5.25-1.42-5.25-3.62s1.86-3.52,4.52-3.52a8.16,8.16,0,0,1,6.21,2.52L102,93.35a10.06,10.06,0,0,0-7.44-2.92c-4.23,0-7.29,2.47-7.29,5.88,0,4,3.58,5,7,6,2.92.78,5.67,1.52,5.67,4.15,0,2.84-2.78,3.84-5.17,3.84a9.05,9.05,0,0,1-6.72-3Z" transform="translate(-21.4 -31.69)"/><path class="cls-2" d="M107.39,101.42c0-6.34,4.31-11.1,10.65-11.1s10.69,4.76,10.69,11.1-4.35,11.1-10.69,11.1S107.39,107.76,107.39,101.42Zm18.57,0c0-5-3.12-8.72-7.92-8.72s-7.88,3.7-7.88,8.72,3.06,8.72,7.88,8.72S126,106.41,126,101.42Z" transform="translate(-21.4 -31.69)"/><path class="cls-2" d="M118,112.63c-6.23,0-10.76-4.71-10.76-11.21S111.81,90.21,118,90.21s10.8,4.72,10.8,11.21S124.3,112.63,118,112.63Zm0-22.2c-6.11,0-10.54,4.62-10.54,11s4.43,11,10.54,11,10.57-4.62,10.57-11S124.17,90.43,118,90.43Zm0,19.82c-4.71,0-8-3.63-8-8.83s3.21-8.83,8-8.83,8,3.63,8,8.83S122.77,110.25,118,110.25Zm0-17.44c-4.65,0-7.77,3.46-7.77,8.61S113.47,110,118,110s7.81-3.54,7.81-8.61S122.64,92.81,118,92.81Z" transform="translate(-21.4 -31.69)"/><path class="cls-2" d="M133.61,101.42a10.73,10.73,0,0,1,11-11.1,9.52,9.52,0,0,1,8.14,4.25l-2.22,1.25a7.22,7.22,0,0,0-5.92-3.12c-4.7,0-8.27,3.57-8.27,8.72s3.57,8.72,8.27,8.72a7.29,7.29,0,0,0,5.92-3.12l2.25,1.22a9.64,9.64,0,0,1-8.17,4.28A10.73,10.73,0,0,1,133.61,101.42Z" transform="translate(-21.4 -31.69)"/><path class="cls-2" d="M144.65,112.63a11.21,11.21,0,0,1,0-22.42,9.68,9.68,0,0,1,8.23,4.29l.07.1-.1.06L150.53,96l-.05-.09a7.09,7.09,0,0,0-5.83-3.07c-4.73,0-8.16,3.62-8.16,8.61s3.43,8.61,8.16,8.61a7.22,7.22,0,0,0,5.83-3.07l.05-.08.09,0,2.37,1.29-.08.1A9.78,9.78,0,0,1,144.65,112.63Zm0-22.2a11,11,0,0,0,0,22,9.58,9.58,0,0,0,8-4.13l-2.06-1.11a7.45,7.45,0,0,1-5.95,3.08c-4.86,0-8.38-3.71-8.38-8.83s3.52-8.83,8.38-8.83a7.27,7.27,0,0,1,5.95,3.09l2-1.15A9.44,9.44,0,0,0,144.65,90.43Z" transform="translate(-21.4 -31.69)"/><path class="cls-2" d="M157.84,112.14V90.67h2.67v21.47Z" transform="translate(-21.4 -31.69)"/><path class="cls-2" d="M160.62,112.25h-2.89V90.56h2.89ZM158,112h2.45V90.79H158Z" transform="translate(-21.4 -31.69)"/><path class="cls-2" d="M167.14,112.14V90.67H181.2v2.39H169.81V100H181v2.39H169.81v7.4H181.2v2.38Z" transform="translate(-21.4 -31.69)"/><path class="cls-2" d="M181.31,112.25H167V90.56h14.28v2.61H169.92v6.69h11.16v2.61H169.92v7.18h11.39ZM167.25,112h13.84v-2.16H169.7v-7.63h11.16v-2.16H169.7V92.94h11.39V90.79H167.25Z" transform="translate(-21.4 -31.69)"/><path class="cls-2" d="M192.36,112.14V93.06h-6.79V90.67h16.28v2.39H195v19.08Z" transform="translate(-21.4 -31.69)"/><path class="cls-2" d="M195.14,112.25h-2.89V93.17h-6.79V90.56H202v2.61h-6.82Zm-2.67-.22h2.45V92.94h6.82V90.79H185.68v2.15h6.79Z" transform="translate(-21.4 -31.69)"/><path class="cls-2" d="M213.88,112.14v-9.08l-8.46-12.39h3.12l6.66,10,6.66-10H225l-8.44,12.39v9.08Z" transform="translate(-21.4 -31.69)"/><path class="cls-2" d="M216.67,112.25h-2.9V103.1l-8.56-12.54h3.39l0,0,6.57,9.84,6.6-9.89h3.4l-.12.18-8.41,12.36ZM214,112h2.45v-9l8.34-12.24h-2.86l-6.72,10.06-6.72-10.06h-2.85L214,103Z" transform="translate(-21.4 -31.69)"/><path class="cls-2" d="M230.35,96.32a3,3,0,1,1,3-3A3,3,0,0,1,230.35,96.32Zm0-5.55a2.58,2.58,0,1,0,2.57,2.58A2.56,2.56,0,0,0,230.35,90.77Zm.82,4.29-.89-1.35h-.62v1.35h-.45V91.65h1.39a1,1,0,0,1,1.09,1,1,1,0,0,1-.88,1l.92,1.36Zm-.57-3h-.94V93.3h.94a.63.63,0,0,0,.62-.61A.65.65,0,0,0,230.6,92Z" transform="translate(-21.4 -31.69)"/><path class="cls-2" d="M230.35,96.44a3.09,3.09,0,0,1,0-6.18,3.05,3.05,0,0,1,3.09,3.09A3.1,3.1,0,0,1,230.35,96.44Zm0-6a2.87,2.87,0,1,0,2.87,2.87A2.84,2.84,0,0,0,230.35,90.48Zm0,5.55a2.69,2.69,0,0,1-2.68-2.68,2.68,2.68,0,1,1,5.36,0A2.69,2.69,0,0,1,230.35,96Zm0-5.14a2.43,2.43,0,0,0-2.46,2.46,2.46,2.46,0,0,0,4.92,0A2.43,2.43,0,0,0,230.35,90.89Zm1.58,4.28h-.82l-.89-1.35h-.45v1.35h-.67V91.54h1.5a1.15,1.15,0,0,1,1.2,1.15,1.13,1.13,0,0,1-.8,1.09Zm-.7-.22h.29l-.91-1.36h.2a.89.89,0,0,0,.77-.9.93.93,0,0,0-1-.93h-1.28V95h.23V93.6h.79Zm-.63-1.54h-1V91.93h1a.76.76,0,0,1,.73.76A.75.75,0,0,1,230.6,93.41Zm-.83-.22h.83a.53.53,0,0,0,.51-.5.54.54,0,0,0-.51-.54h-.83Z" transform="translate(-21.4 -31.69)"/></svg>