<?xml version="1.0" standalone="no"?>
<!DOCTYPE svg PUBLIC "-//W3C//DTD SVG 20010904//EN"
 "http://www.w3.org/TR/2001/REC-SVG-20010904/DTD/svg10.dtd">
<svg version="1.0" xmlns="http://www.w3.org/2000/svg"
 width="2000.000000pt" height="402.000000pt" viewBox="0 0 2000.000000 402.000000"
 preserveAspectRatio="xMidYMid meet">

<g transform="translate(0.000000,402.000000) scale(0.100000,-0.100000)"
fill="#800000" stroke="none">
<path d="M940 4010 c-329 -14 -854 -51 -918 -65 l-23 -6 4 -1167 3 -1167 27
-122 c127 -572 428 -977 922 -1243 192 -102 496 -203 620 -203 156 -1 537 136
760 273 398 245 661 612 775 1083 60 247 60 253 60 1452 l0 1093 -27 6 c-38 7
-524 43 -768 56 -262 15 -1174 21 -1435 10z m485 -212 c22 -5 61 -19 88 -30
l47 -20 0 -473 0 -473 -61 25 c-71 29 -177 53 -234 53 -22 0 -128 -18 -235
-40 -107 -22 -239 -43 -292 -47 l-98 -6 0 480 0 480 158 -1 c147 -1 162 1 237
27 131 45 275 55 390 25z m665 -14 c124 -34 199 -44 348 -44 l132 0 0 -476 0
-477 -102 6 c-57 3 -191 22 -298 43 -270 51 -399 50 -512 -7 -21 -11 -42 -19
-48 -19 -7 0 -9 146 -8 467 l3 467 87 28 c163 52 248 54 398 12z m-1689 -233
c64 -65 20 -171 -71 -171 -33 0 -48 6 -71 29 -64 65 -20 171 71 171 33 0 48
-6 71 -29z m2304 -24 c22 1 68 3 103 5 61 3 65 2 93 -30 41 -46 38 -57 -18
-58 -33 0 -74 -12 -129 -37 -44 -20 -95 -40 -112 -43 l-32 -6 0 92 0 92 28 -8
c15 -5 45 -8 67 -7z m-2115 -57 l0 -60 -60 0 -60 0 0 60 0 60 60 0 60 0 0 -60z
m-189 -329 c63 -64 20 -171 -69 -171 -67 0 -117 61 -104 127 14 73 117 99 173
44z m2493 -11 c13 -14 27 -35 30 -47 6 -20 4 -21 -33 -16 -33 5 -54 -1 -114
-31 -40 -20 -94 -39 -119 -42 -54 -8 -55 -6 -50 95 l3 66 130 0 c124 0 129 -1
153 -25z m-2304 -70 l0 -60 -60 0 -60 0 0 60 0 60 60 0 60 0 0 -60z m1090
-406 c43 -17 74 -24 93 -20 26 5 29 3 24 -14 -6 -25 19 -27 51 -4 20 14 22 14
22 -1 0 -23 -46 -65 -72 -66 l-23 0 23 -16 c12 -8 22 -25 22 -36 0 -24 27 -57
47 -57 8 0 11 -5 7 -11 -3 -6 -19 -9 -35 -7 -23 4 -26 2 -20 -11 5 -9 12 -35
16 -58 4 -23 16 -54 27 -68 22 -28 6 -35 -23 -9 -16 15 -17 13 -12 -24 3 -22
0 -57 -7 -78 l-13 -38 -23 27 c-31 36 -38 34 -19 -4 18 -34 32 -129 19 -129
-4 0 -18 12 -31 28 l-22 27 8 -31 c5 -18 29 -57 54 -87 25 -31 48 -70 52 -87
7 -30 -2 -146 -13 -164 -2 -5 -15 9 -28 30 -18 30 -24 34 -24 18 0 -11 13 -41
30 -67 32 -51 49 -120 32 -131 -6 -3 -13 2 -17 13 -3 11 -12 24 -19 30 -9 7
-7 -11 6 -62 20 -76 19 -129 -5 -186 l-15 -34 -18 76 c-10 43 -21 77 -25 77
-4 0 -17 -15 -28 -33 -11 -18 -29 -41 -39 -50 -18 -17 -19 -15 -30 50 -12 75
-44 179 -59 194 -12 12 -98 -213 -114 -296 -9 -52 -7 -116 7 -164 3 -9 -4 0
-14 19 -48 85 -54 245 -13 301 17 23 21 37 16 57 l-7 27 -12 -32 c-15 -42 -23
-48 -41 -33 -23 19 -18 64 12 118 18 33 24 54 19 68 -7 18 -9 17 -22 -8 -18
-34 -30 -35 -40 -5 -23 68 13 204 66 252 32 29 23 38 -15 15 l-35 -22 0 36 c0
70 46 139 102 152 22 4 27 9 19 17 -18 18 -13 24 27 31 50 8 92 40 92 71 l0
24 -25 -24 c-13 -14 -36 -25 -51 -25 -27 0 -27 0 -8 21 26 29 8 53 -44 57 -39
3 -84 32 -49 32 8 0 35 9 60 20 50 22 69 19 110 -18 l27 -26 0 26 c0 25 -39
68 -62 68 -5 0 -24 16 -42 35 -24 25 -42 35 -63 35 -22 0 -33 6 -41 25 -15 32
-64 35 -85 5 -13 -18 -16 -19 -27 -5 -27 32 -5 101 40 125 16 9 22 6 35 -19
24 -47 36 -48 29 -2 -7 43 8 55 34 29 9 -9 13 -7 18 6 9 23 52 45 90 46 17 0
59 -12 94 -26z m-662 -50 c35 -24 46 -53 52 -138 5 -79 5 -79 38 -90 32 -11
32 -12 16 -35 -15 -21 -22 -23 -64 -18 -44 5 -50 3 -79 -27 -35 -36 -38 -56
-14 -97 15 -25 15 -33 5 -50 -15 -23 -8 -54 12 -62 8 -3 44 1 81 10 62 14 71
14 102 -1 46 -22 53 -20 53 12 -1 19 -10 33 -33 47 -40 25 -45 59 -17 122 l21
47 19 -40 c13 -24 41 -54 76 -78 87 -60 110 -115 85 -204 -7 -21 -6 -43 0 -59
7 -20 6 -35 -7 -61 -26 -55 -30 -149 -9 -197 12 -26 17 -60 16 -96 -2 -47 1
-61 22 -84 21 -25 23 -33 14 -62 -7 -22 -7 -47 0 -78 14 -62 1 -56 -27 12 -43
105 -131 173 -222 173 -36 0 -36 -16 4 -69 24 -33 33 -57 36 -97 2 -30 0 -54
-5 -54 -16 0 -81 74 -95 109 l-14 34 -31 -36 c-32 -36 -52 -89 -53 -137 -1
-18 -6 -11 -21 28 l-21 52 51 64 c61 76 134 201 129 218 -3 7 -46 -43 -97
-112 -52 -69 -95 -127 -97 -129 -2 -2 -13 17 -25 42 l-22 45 30 39 c35 43 107
182 99 190 -3 3 -35 -41 -72 -98 -36 -57 -68 -105 -69 -107 -2 -2 -14 4 -28
13 -23 15 -25 15 -31 -7 -3 -13 -6 -36 -6 -52 0 -21 -15 -42 -62 -88 l-63 -61
-8 47 c-8 47 -8 48 51 114 61 70 159 219 149 228 -3 3 -51 -51 -108 -120
l-102 -126 -23 31 c-13 18 -20 37 -17 43 4 6 27 39 50 73 44 62 98 172 89 180
-2 3 -41 -51 -87 -119 -97 -146 -87 -134 -98 -122 -6 5 -3 43 5 93 8 46 13 88
11 95 -7 18 -28 -43 -41 -119 -12 -66 -14 -70 -44 -79 -37 -10 -40 -24 -11
-50 20 -16 21 -25 16 -97 -4 -65 -2 -85 14 -116 10 -20 18 -37 16 -38 -29 -14
-61 -25 -64 -21 -10 10 -33 196 -33 271 0 75 13 218 26 293 12 71 -17 15 -122
-239 -95 -230 -109 -259 -121 -243 -18 24 -16 55 7 154 31 127 109 299 182
403 40 56 6 38 -76 -41 -91 -88 -147 -122 -198 -122 -31 0 -26 6 130 156 90
86 161 158 159 160 -2 3 -34 -10 -71 -27 -69 -32 -161 -47 -212 -35 -26 7 -23
10 56 52 118 63 212 127 254 174 36 40 47 67 24 57 -115 -48 -153 -60 -205
-65 -34 -2 -73 -2 -88 2 -25 6 -15 15 116 94 79 49 195 120 257 160 73 46 124
72 142 72 16 0 32 5 35 10 4 6 -9 10 -33 10 -45 0 -67 19 -57 50 6 19 8 19 28
5 30 -21 73 -19 153 9 81 29 141 32 172 10z m1457 -18 c37 -15 81 -26 97 -26
26 0 29 -2 18 -15 -7 -8 -21 -15 -31 -15 -34 0 -20 -17 25 -30 61 -17 152 -70
137 -80 -9 -5 29 -50 117 -141 72 -74 129 -135 127 -137 -10 -11 -162 93 -195
133 -15 18 -50 39 -50 30 0 -3 48 -56 107 -118 102 -107 223 -258 223 -279 0
-11 -26 -4 -88 23 -74 32 -98 56 -182 179 -70 104 -100 138 -100 114 0 -3 41
-73 91 -156 109 -180 154 -272 169 -345 16 -75 9 -360 -9 -392 -10 -19 -15
-21 -21 -10 -4 8 -35 125 -69 262 -66 265 -103 376 -151 447 -16 25 -30 42
-30 39 0 -3 18 -53 40 -112 54 -144 89 -277 97 -367 l6 -75 -36 -13 c-19 -7
-51 -24 -71 -37 l-36 -24 0 47 c0 106 -53 357 -81 386 -12 13 -11 -7 10 -151
9 -68 15 -123 13 -123 -2 0 -15 15 -30 32 -98 119 -146 170 -149 161 -7 -19
70 -137 129 -199 61 -64 66 -80 49 -158 -6 -29 -6 -29 -25 -10 -11 10 -71 79
-135 153 -63 74 -117 129 -119 123 -9 -29 74 -150 164 -238 52 -50 94 -95 94
-99 0 -5 -12 -23 -26 -42 l-26 -34 -46 35 c-28 21 -51 47 -58 67 -8 26 -17 34
-36 34 -17 1 -43 21 -85 65 -34 36 -64 62 -68 58 -10 -9 41 -95 73 -125 l24
-22 -22 -46 -23 -47 -41 39 c-66 63 -76 69 -76 47 0 -10 25 -42 56 -71 55 -53
56 -53 44 -88 -8 -25 -36 -56 -88 -101 -41 -35 -77 -62 -79 -60 -3 2 5 22 16
43 19 37 75 95 117 119 19 11 19 12 -1 34 -17 19 -27 21 -66 16 l-46 -6 -11
77 c-7 43 -12 88 -12 101 0 30 -13 28 -53 -8 -26 -22 -36 -41 -41 -72 -6 -42
-55 -157 -67 -158 -3 0 -9 27 -12 60 -5 39 -15 73 -32 98 -30 45 -44 134 -26
156 7 9 11 36 10 63 -2 26 -2 105 -1 176 3 133 -1 152 -44 197 -19 21 -22 32
-17 67 5 39 7 42 33 37 29 -6 60 16 60 42 0 8 16 30 35 50 37 37 42 53 25 85
-12 22 -10 23 25 7 31 -14 42 -51 26 -93 -19 -53 -16 -58 29 -52 58 8 86 29
103 82 9 25 28 60 42 76 26 32 23 60 -10 73 -8 3 -15 13 -15 23 0 14 -5 12
-28 -10 -25 -24 -34 -26 -100 -24 -84 2 -93 17 -29 45 63 28 76 45 70 90 -5
35 -1 43 35 81 33 35 45 41 73 40 19 -2 48 5 64 15 40 22 130 15 220 -18z
m-1182 -138 c7 -4 53 -8 104 -8 83 0 95 -2 120 -24 l28 -25 -42 6 c-23 3 -78
0 -122 -7 -92 -14 -129 -3 -145 42 -8 22 -6 32 9 48 l19 21 9 -23 c4 -12 13
-26 20 -30z m323 -939 c11 -40 13 -86 9 -174 l-5 -120 21 57 c11 31 37 76 58
99 l38 43 18 -66 c25 -95 18 -151 -33 -237 -32 -54 -42 -79 -42 -113 l1 -43
19 48 c10 27 35 72 54 100 24 36 40 75 51 125 15 71 26 103 48 130 16 20 36
-23 37 -79 0 -34 -10 -66 -34 -115 -19 -38 -33 -70 -31 -73 10 -9 58 33 68 60
14 35 23 37 31 5 8 -31 -1 -54 -26 -67 -28 -15 -58 -69 -58 -104 l1 -30 30 35
c49 57 78 113 85 166 4 27 20 72 35 99 15 28 31 68 34 90 8 42 30 85 44 85 5
0 12 -36 16 -79 5 -62 4 -87 -8 -110 -18 -37 -17 -37 25 -11 18 11 47 20 63
19 30 0 30 0 5 -10 -42 -17 -61 -41 -105 -134 -29 -62 -55 -101 -84 -127 -36
-32 -52 -58 -36 -58 26 0 88 41 143 93 37 35 91 80 119 101 41 29 59 52 82 99
16 34 32 76 35 92 8 35 43 81 54 71 10 -11 6 -89 -8 -148 -7 -27 -28 -71 -46
-99 l-35 -50 37 16 c116 48 203 119 273 224 46 67 71 93 113 119 68 40 86 42
60 5 -11 -16 -23 -48 -27 -73 -4 -25 -17 -64 -30 -87 -25 -45 -22 -50 20 -31
44 20 37 3 -28 -65 -77 -81 -121 -102 -258 -123 -152 -23 -217 -47 -337 -127
-59 -38 -129 -78 -155 -87 -73 -26 -75 -34 -18 -59 81 -34 120 -29 244 35 60
30 111 54 113 51 2 -2 -31 -38 -74 -79 -63 -62 -88 -79 -132 -92 -91 -27 -180
-37 -260 -30 -61 5 -83 3 -108 -10 -39 -20 -41 -34 -4 -28 20 2 42 -7 80 -32
75 -52 101 -55 158 -17 54 35 107 41 154 16 32 -16 40 -35 16 -35 -8 0 -33
-23 -57 -51 -80 -96 -145 -103 -265 -30 -101 62 -128 70 -144 42 -15 -29 -7
-51 41 -108 46 -56 52 -98 17 -130 -32 -28 -54 -34 -86 -22 -27 10 -92 67 -92
80 0 4 17 3 37 -1 70 -16 91 16 51 80 -12 19 -26 52 -33 73 l-11 39 -55 -49
c-96 -87 -164 -121 -215 -109 -14 4 -63 43 -111 86 -47 44 -108 95 -134 112
-27 17 -49 33 -49 36 0 11 168 -7 200 -21 19 -9 56 -38 83 -66 64 -69 93 -69
158 -2 74 77 76 86 27 106 -54 21 -154 30 -200 17 -21 -6 -38 -7 -38 -3 0 15
67 71 104 86 55 23 98 12 152 -37 38 -35 44 -38 44 -20 0 30 -48 82 -95 103
-68 31 -124 25 -242 -27 -81 -35 -113 -44 -137 -40 -64 12 -218 134 -252 199
l-15 27 48 -29 c108 -65 197 -76 293 -36 82 34 151 33 260 -5 47 -16 87 -30
90 -30 13 0 -60 53 -105 77 -65 35 -200 43 -285 18 -94 -28 -102 -28 -150 -1
-25 15 -53 29 -62 32 -26 9 -22 22 14 44 42 25 98 34 144 21 l38 -10 -21 20
c-15 16 -53 26 -159 44 -200 33 -394 86 -394 106 0 17 54 31 95 24 l40 -6 -37
38 c-54 56 -68 96 -57 165 6 37 5 66 -1 84 -14 35 -8 40 30 24 41 -17 49 -35
61 -137 9 -79 32 -143 51 -143 4 0 8 15 8 34 0 18 7 39 15 46 9 8 15 8 15 2 0
-19 52 -73 90 -92 55 -28 66 -11 39 59 -15 42 -19 72 -17 140 l3 86 21 -40
c12 -22 31 -72 42 -111 12 -39 38 -96 58 -125 66 -97 65 -97 62 21 -3 96 -1
108 19 133 l22 28 15 -29 c9 -17 28 -39 43 -50 26 -19 28 -25 30 -99 1 -78 1
-78 41 -113 22 -19 86 -61 143 -94 57 -32 126 -79 153 -105 41 -39 47 -42 41
-21 -11 37 -38 63 -131 126 -151 101 -203 182 -188 294 9 71 -3 134 -32 165
-14 15 -24 28 -22 30 12 9 72 -22 106 -54 53 -52 91 -118 127 -223 24 -69 42
-102 85 -152 30 -36 56 -63 58 -62 1 2 -4 29 -13 61 -23 89 -29 202 -16 282
12 68 66 202 77 190 3 -3 12 -29 20 -58z m-781 -228 c11 -36 -15 -22 -50 28
l-30 43 30 26 30 25 6 -49 c4 -27 10 -60 14 -73z m1639 17 l38 -33 -26 -24
c-23 -21 -29 -23 -52 -12 -17 8 -24 17 -20 27 3 9 6 29 6 45 0 37 8 36 54 -3z
m-44 -99 c0 -9 -42 -40 -47 -35 -2 2 1 15 8 29 10 23 39 28 39 6z m271 -111
c-24 -71 -76 -168 -91 -168 -15 0 -23 47 -16 98 4 35 12 52 33 67 14 11 40 32
57 47 17 14 33 25 35 23 1 -2 -6 -32 -18 -67z m-2131 44 c29 -14 37 -25 44
-60 10 -47 -2 -117 -19 -117 -13 0 -48 74 -68 143 -18 59 -14 62 43 34z"/>
<path d="M1129 3651 c-75 -76 9 -200 96 -141 l30 20 -36 0 c-23 0 -42 7 -54
20 -18 20 -18 21 19 59 35 35 36 39 21 55 -24 23 -43 20 -76 -13z m49 -13 c9
-9 8 -16 -5 -30 -22 -24 -33 -23 -33 5 0 36 16 47 38 25z"/>
<path d="M1034 3649 c-4 -6 -20 -8 -39 -5 -39 8 -65 -14 -40 -34 10 -8 15 -31
15 -71 0 -44 4 -59 14 -59 17 0 26 31 26 93 0 26 5 47 10 47 6 0 10 -4 10 -10
0 -14 36 -12 48 3 7 9 4 17 -13 30 -16 11 -26 14 -31 6z"/>
<path d="M1296 3639 c-27 -22 -34 -57 -14 -77 9 -9 7 -17 -11 -36 l-23 -24 23
-12 c31 -17 96 -6 125 21 29 28 30 40 3 64 l-20 19 23 18 c23 17 23 17 3 32
-28 22 -78 20 -109 -5z m60 -23 c19 -14 19 -15 0 -22 -20 -8 -47 5 -54 24 -5
17 30 15 54 -2z m24 -93 c0 -20 -28 -27 -57 -14 -24 11 -25 13 -8 31 14 15 21
17 41 8 13 -6 24 -17 24 -25z"/>
<path d="M749 3611 c-22 -23 -29 -39 -29 -70 0 -63 45 -97 117 -86 26 4 49 2
57 -4 9 -8 11 2 6 47 -4 31 -5 75 -3 97 l4 40 -61 3 c-56 2 -64 0 -91 -27z
m115 -7 c21 -21 21 -92 -1 -116 -39 -43 -103 -8 -103 57 0 64 64 100 104 59z"/>
<path d="M1450 3570 c0 -5 10 -10 23 -10 18 0 19 2 7 10 -19 13 -30 13 -30 0z"/>
<path d="M1450 3540 c0 -5 10 -10 23 -10 18 0 19 2 7 10 -19 13 -30 13 -30 0z"/>
<path d="M1213 3451 c-48 -8 -83 -35 -83 -63 0 -14 16 -26 55 -43 46 -21 55
-29 55 -50 0 -22 -4 -25 -39 -25 -31 0 -44 6 -60 28 l-20 27 -1 -30 c0 -16 5
-37 10 -45 8 -12 10 -12 10 -1 0 10 10 12 45 8 49 -7 70 6 81 50 10 37 -6 56
-60 72 -33 10 -46 19 -44 30 4 22 61 26 82 6 15 -15 16 -14 16 14 0 17 -1 30
-2 30 -2 -1 -22 -5 -45 -8z"/>
<path d="M1032 3410 c-18 -22 -28 -41 -22 -45 5 -3 10 -30 10 -59 0 -68 20
-90 53 -58 17 18 18 22 5 22 -18 0 -28 20 -28 59 0 23 6 30 33 39 l32 10 -29
1 c-26 1 -28 3 -24 36 2 19 4 35 3 35 0 0 -15 -18 -33 -40z"/>
<path d="M1430 3435 c-10 -12 -10 -18 0 -30 15 -18 30 -11 30 15 0 26 -15 33
-30 15z"/>
<path d="M762 3398 c-63 -39 -80 -111 -37 -153 29 -30 70 -33 85 -5 9 18 8 20
-15 20 -14 0 -34 9 -45 20 -40 40 -13 124 28 87 14 -13 21 -14 30 -5 16 16 15
33 -1 46 -9 8 -21 5 -45 -10z"/>
<path d="M881 3379 c-14 -13 -21 -30 -20 -47 2 -15 -3 -37 -10 -50 -10 -20
-10 -27 4 -48 15 -23 17 -24 38 -9 27 19 37 19 37 0 0 -21 13 -19 35 5 10 11
13 20 7 20 -8 0 -12 21 -12 58 -1 86 -32 115 -79 71z m34 -44 c0 -23 -4 -30
-20 -30 -21 0 -31 25 -21 51 11 28 41 12 41 -21z m5 -60 c0 -29 -8 -31 -36
-11 -18 14 -18 15 6 25 14 5 26 10 28 10 1 1 2 -10 2 -24z"/>
<path d="M1322 3367 c-38 -39 -43 -86 -11 -118 24 -24 46 -22 65 7 13 19 12
21 -7 20 -27 -1 -62 44 -53 67 4 10 17 17 33 17 34 0 44 9 30 27 -16 19 -21
17 -57 -20z"/>
<path d="M1426 3351 c-15 -16 -15 -19 -1 -24 11 -5 15 -21 15 -57 0 -55 17
-73 46 -49 14 12 14 14 0 24 -9 7 -16 31 -18 65 -3 59 -15 71 -42 41z"/>
<path d="M1211 3196 c-9 -10 -8 -16 4 -26 13 -11 19 -10 33 4 15 15 15 18 2
26 -20 13 -26 12 -39 -4z"/>
<path d="M1107 3150 c-16 -22 -23 -42 -17 -45 6 -3 10 -28 10 -55 0 -38 4 -52
18 -59 15 -8 23 -5 39 18 l21 27 -22 0 c-16 -1 -22 6 -24 30 -2 25 1 33 20 39
l23 8 -23 4 c-21 4 -23 9 -20 39 2 19 3 34 2 34 -1 0 -13 -18 -27 -40z"/>
<path d="M774 3126 c-48 -48 -47 -95 2 -144 l35 -35 20 29 19 29 -31 6 c-16 4
-32 9 -35 12 -3 2 15 21 40 42 l45 37 -21 29 c-12 16 -26 29 -31 29 -5 0 -24
-15 -43 -34z m29 -63 c-15 -12 -30 -20 -35 -17 -14 9 -9 47 9 66 17 19 18 19
35 -4 17 -22 17 -24 -9 -45z"/>
<path d="M1361 3136 c-13 -14 -22 -34 -20 -48 2 -12 -2 -33 -9 -45 -15 -28
-15 -35 1 -57 13 -17 15 -17 45 -2 29 15 34 15 55 1 22 -14 25 -14 42 5 15 17
16 20 3 20 -20 0 -28 21 -28 69 0 42 -23 81 -49 81 -10 0 -28 -11 -40 -24z
m47 -55 c4 -25 -19 -28 -42 -5 -18 18 -18 17 -10 39 6 14 9 14 28 2 11 -8 22
-24 24 -36z m-8 -52 c0 -12 -7 -19 -19 -19 -23 0 -35 15 -27 35 7 20 46 7 46
-16z"/>
<path d="M906 3132 c-11 -13 -14 -22 -7 -27 6 -3 11 -35 11 -71 0 -57 2 -64
20 -64 18 0 20 7 20 63 0 68 4 79 26 70 10 -4 14 -24 14 -74 0 -38 3 -69 6
-69 3 0 17 9 31 20 14 11 21 20 16 20 -6 0 -13 28 -17 61 -7 75 -21 97 -46 74
-21 -19 -30 -19 -44 1 -10 14 -14 13 -30 -4z"/>
<path d="M1223 3133 c-22 -15 -31 -34 -15 -32 27 4 32 -4 32 -51 0 -37 4 -52
16 -57 9 -3 19 0 24 6 15 26 -9 152 -29 150 -3 0 -16 -7 -28 -16z"/>
<path d="M2004 3716 c-7 -19 3 -36 22 -36 10 0 14 8 12 22 -4 26 -26 36 -34
14z"/>
<path d="M1892 3703 c-22 -4 -23 -5 -5 -18 16 -12 16 -18 5 -62 -18 -68 -27
-71 -48 -18 -17 45 -17 48 0 60 15 12 9 14 -48 20 -35 4 -70 5 -78 2 -7 -3 -3
-6 10 -6 26 -1 50 -36 90 -133 15 -37 30 -68 34 -68 3 0 21 44 38 98 20 58 41
104 54 114 l21 18 -25 -2 c-14 0 -35 -3 -48 -5z"/>
<path d="M2146 3651 c-23 -24 -34 -41 -27 -45 6 -4 11 -26 12 -49 0 -48 19
-109 35 -114 6 -2 17 8 24 22 11 21 12 28 1 34 -7 5 -13 30 -14 57 l-2 49 38
3 c48 4 49 22 1 22 -35 0 -36 1 -32 30 3 17 4 30 3 30 0 0 -18 -17 -39 -39z"/>
<path d="M1973 3631 l-23 -19 25 -6 c21 -5 24 -12 27 -63 3 -62 23 -87 55 -67
25 16 26 31 3 37 -17 4 -20 13 -20 59 0 76 -23 96 -67 59z"/>
<path d="M2306 3589 c-19 -15 -26 -28 -22 -41 2 -11 0 -31 -6 -44 -8 -17 -7
-31 2 -54 14 -33 26 -37 54 -15 17 13 22 13 36 0 15 -14 19 -13 35 5 14 16 16
23 7 32 -7 7 -12 35 -12 63 0 46 -3 53 -25 63 -34 16 -38 15 -69 -9z m42 -21
c12 -12 17 -48 7 -48 -4 0 -19 7 -35 15 -19 10 -27 20 -24 30 7 18 35 20 52 3z
m-4 -54 c21 -8 21 -53 0 -61 -19 -7 -34 13 -34 45 0 23 7 26 34 16z"/>
<path d="M1822 3419 c-99 -13 -152 -66 -134 -133 14 -50 53 -71 133 -71 l69 0
0 108 c0 59 -1 106 -2 106 -2 -1 -31 -5 -66 -10z m36 -35 c35 -24 28 -50 -15
-58 -108 -17 -138 -1 -88 49 28 29 70 32 103 9z m0 -90 c26 -5 28 -21 5 -46
-25 -28 -70 -23 -104 12 -17 16 -28 34 -24 40 5 9 64 6 123 -6z"/>
<path d="M1940 3379 c-20 -18 -26 -26 -13 -20 28 14 29 14 47 -5 21 -20 20
-66 0 -107 l-16 -32 29 27 29 28 22 -22 22 -22 22 22 22 22 -37 31 c-42 35
-52 74 -14 61 25 -9 57 -5 57 8 0 4 -12 15 -26 25 -23 15 -27 15 -42 2 -15
-14 -20 -14 -36 -1 -26 18 -25 18 -66 -17z"/>
<path d="M2175 3349 c-45 -40 -48 -90 -10 -132 33 -34 54 -34 88 1 l27 28 -36
-4 c-57 -7 -93 42 -64 88 8 13 13 13 30 2 12 -7 30 -10 41 -7 20 7 20 7 -2 31
-12 13 -26 24 -30 24 -5 0 -24 -14 -44 -31z"/>
<path d="M2331 3329 c-71 -71 -10 -204 65 -141 48 40 59 112 24 150 -28 30
-53 28 -89 -9z m69 -39 c14 -26 12 -53 -5 -76 -15 -19 -16 -18 -40 9 -26 30
-33 75 -13 95 14 14 43 0 58 -28z"/>
<path d="M2470 3280 c0 -5 9 -10 21 -10 11 0 17 5 14 10 -3 6 -13 10 -21 10
-8 0 -14 -4 -14 -10z"/>
<path d="M2470 3250 c0 -5 9 -10 21 -10 11 0 17 5 14 10 -3 6 -13 10 -21 10
-8 0 -14 -4 -14 -10z"/>
<path d="M1700 3086 c0 -84 3 -108 17 -121 15 -16 18 -15 34 6 15 20 16 25 3
32 -10 6 -14 30 -14 97 0 83 -1 90 -20 90 -19 0 -20 -7 -20 -104z"/>
<path d="M2012 3155 c-20 -20 -29 -36 -23 -40 6 -3 11 -32 11 -64 0 -31 5 -62
12 -69 18 -18 46 -14 58 8 9 17 8 20 -10 20 -17 0 -20 6 -20 50 0 43 3 50 20
50 11 0 20 5 20 10 0 6 -10 10 -21 10 -19 0 -21 4 -15 30 3 17 4 30 3 29 -1 0
-17 -15 -35 -34z"/>
<path d="M1849 3131 c-21 -22 -29 -38 -26 -52 3 -10 -1 -32 -9 -48 -11 -21
-12 -36 -4 -55 l10 -27 30 23 c25 18 34 20 49 11 15 -10 23 -8 40 11 18 20 20
24 7 29 -10 4 -16 23 -18 58 -2 40 -8 55 -25 66 -21 14 -25 13 -54 -16z m29
-23 c22 -22 14 -48 -13 -48 -20 0 -25 5 -25 23 0 36 16 47 38 25z m12 -79 c0
-20 -29 -34 -43 -20 -15 15 -2 37 22 37 13 0 21 -7 21 -17z"/>
<path d="M2116 3111 c-15 -16 -15 -19 -1 -24 11 -5 15 -21 15 -62 0 -64 13
-76 63 -57 26 10 34 9 49 -5 10 -9 21 -13 25 -9 14 14 2 140 -15 159 -14 16
-16 16 -34 0 -16 -15 -17 -18 -3 -25 9 -6 15 -23 15 -49 0 -39 -1 -40 -32 -37
-32 3 -33 4 -30 48 2 35 -1 50 -16 63 -18 16 -20 16 -36 -2z"/>
<path d="M2326 3081 c-16 -17 -16 -19 4 -24 18 -4 20 -13 20 -71 0 -59 2 -66
20 -66 18 0 20 7 20 65 0 67 5 74 40 53 16 -10 23 -10 36 4 15 15 14 17 -10
33 -21 14 -29 15 -41 5 -13 -10 -19 -10 -33 4 -24 21 -35 20 -56 -3z"/>
<path d="M1553 2608 c-28 -13 -30 -32 -4 -25 14 3 20 -2 24 -19 3 -17 0 -24
-12 -24 -14 0 -14 -2 -1 -10 24 -16 57 -12 105 13 24 12 44 24 45 27 0 8 -103
50 -120 49 -8 0 -25 -5 -37 -11z m106 -32 c9 -11 8 -15 -5 -20 -23 -9 -24 -8
-24 14 0 23 13 26 29 6z"/>
<path d="M4080 3928 c-6 -24 -17 -68 -25 -99 -21 -76 -19 -89 8 -89 15 0 28
11 42 37 37 67 62 78 191 81 l115 4 -3 -377 c-3 -359 -4 -377 -22 -391 -11 -8
-36 -14 -55 -14 -45 0 -64 -12 -59 -36 3 -18 16 -19 195 -20 183 -2 193 -1
199 18 8 26 3 29 -51 36 -77 8 -75 -4 -75 414 l0 368 108 0 c138 0 172 -14
188 -80 9 -38 14 -45 35 -45 23 0 24 4 30 80 3 44 9 95 13 113 7 29 5 32 -15
32 -12 0 -27 -7 -33 -15 -10 -13 -59 -16 -361 -16 -340 0 -350 1 -367 21 -26
32 -46 25 -58 -22z"/>
<path d="M15495 3958 c-17 -52 -52 -204 -48 -210 12 -21 43 -4 68 37 40 62 72
75 194 75 l101 0 0 -373 c0 -423 4 -403 -80 -409 -40 -3 -45 -6 -45 -28 l0
-25 190 0 c178 0 190 1 193 19 5 23 -14 36 -55 36 -64 0 -63 -8 -63 406 l0
374 105 0 c134 0 169 -13 184 -67 6 -21 11 -44 11 -50 0 -7 11 -13 24 -13 21
0 24 5 30 68 4 37 9 88 13 115 5 41 3 47 -12 47 -10 0 -26 -7 -35 -15 -14 -13
-70 -15 -366 -15 -340 -1 -349 0 -363 20 -15 22 -39 27 -46 8z"/>
<path d="M14273 3940 c-144 -30 -231 -149 -203 -276 21 -91 66 -142 216 -242
104 -69 139 -106 154 -163 29 -107 -37 -189 -153 -189 -99 0 -160 45 -206 153
-15 36 -26 48 -38 45 -15 -3 -18 -14 -17 -70 3 -102 18 -136 70 -159 59 -26
167 -39 239 -27 188 29 282 193 206 363 -26 58 -88 115 -202 186 -116 72 -150
110 -157 178 -9 99 44 146 159 139 59 -3 73 -8 100 -33 17 -17 40 -49 50 -73
14 -31 24 -42 36 -40 15 3 18 14 18 68 -1 105 -6 115 -67 128 -79 17 -158 22
-205 12z"/>
<path d="M18423 3940 c-178 -32 -315 -147 -372 -313 -60 -173 -20 -357 105
-483 180 -183 512 -185 694 -4 64 65 117 172 131 270 28 180 -56 373 -200 464
-89 56 -246 85 -358 66z m205 -84 c127 -67 202 -221 202 -416 0 -187 -72 -312
-203 -356 -68 -23 -187 -15 -245 15 -123 63 -202 221 -202 406 0 170 57 284
170 343 62 33 69 34 155 30 60 -3 101 -10 123 -22z"/>
<path d="M5146 3913 c-9 -22 18 -43 55 -43 58 0 59 -9 59 -401 0 -392 3 -375
-63 -388 -26 -6 -32 -12 -32 -31 l0 -25 175 0 c163 0 175 1 178 19 5 23 -14
36 -53 36 -44 0 -56 12 -66 61 -13 69 -11 293 3 307 13 13 441 18 472 6 14 -5
16 -30 16 -168 0 -183 -4 -195 -66 -205 -33 -5 -39 -10 -39 -31 l0 -25 175 0
c173 0 175 0 178 22 3 18 -3 24 -25 28 -67 14 -77 20 -85 53 -5 19 -8 186 -6
371 3 366 4 371 57 371 37 0 64 21 55 43 -6 16 -22 17 -178 15 -168 -3 -171
-3 -174 -25 -3 -19 3 -23 38 -29 65 -10 70 -26 70 -196 l0 -148 -247 2 -248 3
0 151 c0 162 6 184 50 184 39 0 55 11 55 36 l0 24 -174 0 c-155 0 -175 -2
-180 -17z"/>
<path d="M6427 3923 c-17 -16 -6 -43 21 -49 53 -12 60 -15 68 -32 10 -23 18
-566 9 -660 -8 -84 -21 -102 -74 -102 -41 0 -65 -18 -56 -41 4 -12 66 -14 348
-14 l342 0 27 80 c30 88 32 128 6 133 -11 2 -28 -15 -51 -50 -60 -94 -59 -93
-224 -93 -192 0 -183 -10 -183 206 l0 159 93 0 c127 0 134 -3 151 -59 11 -38
17 -47 40 -49 l27 -3 -3 143 c-3 139 -4 143 -25 146 -18 3 -24 -4 -33 -40 -18
-67 -20 -68 -141 -68 l-109 0 0 165 0 165 120 0 c149 0 178 -10 205 -71 26
-60 33 -68 56 -62 22 6 22 -3 3 151 l-6 52 -302 0 c-167 0 -306 -3 -309 -7z"/>
<path d="M7867 3923 c-4 -3 -7 -14 -7 -24 0 -13 11 -19 45 -24 24 -4 50 -14
57 -23 9 -11 14 -93 19 -311 5 -273 7 -300 27 -351 40 -103 128 -162 262 -179
142 -18 291 29 350 111 66 90 72 126 80 426 9 308 10 315 80 327 44 7 53 15
44 39 -6 14 -26 16 -163 14 -152 -3 -156 -4 -159 -25 -3 -19 3 -23 42 -28 25
-4 50 -13 56 -20 34 -41 38 -489 6 -591 -37 -120 -118 -179 -241 -179 -128 1
-208 62 -240 185 -17 65 -22 549 -5 579 6 12 26 21 55 25 39 6 45 10 45 32 l0
24 -173 0 c-96 0 -177 -3 -180 -7z"/>
<path d="M9030 3905 c0 -19 6 -26 28 -30 63 -14 91 -33 101 -72 20 -72 9 -688
-13 -710 -3 -4 -25 -9 -49 -12 -37 -5 -42 -9 -42 -31 l0 -25 160 0 160 0 0 25
c0 22 -5 26 -47 30 -27 3 -53 11 -59 17 -6 6 -15 42 -19 79 -11 84 -13 544 -2
543 4 0 24 -21 46 -47 36 -45 498 -569 561 -639 19 -21 34 -30 42 -25 10 6 13
105 15 407 3 431 4 439 56 451 59 13 63 16 60 37 -3 22 -7 22 -163 22 -156 0
-160 0 -163 -22 -3 -23 4 -26 70 -38 32 -5 39 -11 48 -43 6 -20 13 -156 17
-302 l6 -265 -23 20 c-34 30 -403 443 -466 521 -31 38 -63 84 -72 102 l-16 32
-118 0 -118 0 0 -25z"/>
<path d="M10287 3924 c-13 -13 -7 -42 9 -48 9 -3 29 -6 45 -6 59 0 60 -9 57
-403 -2 -265 -6 -359 -15 -368 -7 -7 -32 -15 -55 -18 -38 -5 -43 -9 -43 -31
l0 -25 180 0 c178 0 180 0 183 22 3 23 3 23 -76 39 -13 2 -27 16 -32 30 -6 14
-10 170 -10 362 0 363 3 384 50 390 60 7 71 12 68 35 -3 22 -6 22 -179 25 -96
1 -178 -1 -182 -4z"/>
<path d="M10867 3923 c-17 -16 -6 -43 21 -49 55 -12 61 -16 80 -47 23 -37 294
-700 313 -765 13 -44 36 -66 56 -54 6 4 31 59 56 122 97 250 287 661 328 714
13 17 30 26 48 26 37 0 64 21 55 43 -5 15 -23 17 -150 17 -120 0 -146 -3 -150
-15 -9 -23 15 -45 48 -45 17 0 31 -6 35 -16 5 -14 -80 -229 -201 -503 l-50
-114 -19 44 c-130 302 -230 565 -221 580 3 5 18 9 33 9 33 0 54 20 45 44 -5
14 -27 16 -163 16 -87 0 -161 -3 -164 -7z"/>
<path d="M12016 3913 c-8 -21 18 -43 50 -43 52 0 54 -16 54 -395 0 -282 -3
-355 -14 -370 -9 -12 -31 -21 -62 -24 -44 -5 -49 -9 -49 -31 l0 -24 342 -2
342 -3 20 52 c28 77 43 137 37 153 -11 30 -42 13 -73 -39 -55 -92 -55 -92
-219 -92 -196 0 -189 -8 -189 203 l0 157 99 3 c118 3 141 -7 151 -68 6 -37 10
-41 33 -38 l25 3 0 140 0 140 -23 0 c-20 0 -26 -8 -35 -40 -17 -66 -15 -65
-141 -65 l-114 0 0 166 0 166 139 -4 c131 -3 141 -4 165 -27 14 -13 31 -40 37
-60 13 -41 25 -52 47 -43 12 4 14 21 8 94 -3 50 -8 94 -12 99 -3 5 -137 9
-309 9 -277 0 -303 -1 -309 -17z"/>
<path d="M13045 3921 c-56 -6 -60 -8 -60 -31 0 -22 5 -25 37 -28 63 -5 63 -3
66 -341 4 -301 0 -392 -18 -420 -4 -8 -28 -17 -52 -20 -38 -5 -43 -9 -43 -31
l0 -25 175 0 175 0 0 25 c0 21 -6 26 -37 31 -67 11 -68 14 -68 185 l0 154 44
0 c24 0 52 -3 61 -6 9 -4 58 -70 110 -148 132 -202 183 -242 314 -253 49 -3
71 -1 85 10 22 16 14 37 -15 37 -59 0 -150 93 -271 275 -68 104 -77 121 -62
130 65 40 108 83 130 129 59 126 6 257 -125 308 -48 18 -79 22 -221 23 -91 2
-192 0 -225 -4z m353 -75 c93 -48 130 -193 75 -287 -31 -53 -74 -72 -167 -73
l-81 -1 -3 180 c-1 98 0 186 3 194 7 18 130 9 173 -13z"/>
<path d="M14857 3924 c-4 -4 -7 -15 -7 -25 0 -18 16 -25 70 -31 48 -6 50 -25
48 -405 -2 -262 -6 -355 -15 -364 -7 -7 -32 -15 -55 -18 -38 -5 -43 -9 -43
-31 l0 -25 180 0 c168 0 180 1 183 19 5 23 -14 36 -50 36 -16 0 -37 9 -48 20
-19 19 -20 33 -20 373 0 381 2 397 53 397 46 0 68 12 65 34 -3 20 -8 21 -179
24 -96 1 -178 -1 -182 -4z"/>
<path d="M16507 3918 c-9 -25 13 -48 44 -48 47 0 73 -36 192 -267 l107 -210 0
-139 c0 -76 -4 -146 -9 -153 -5 -8 -31 -17 -58 -20 -43 -5 -48 -9 -48 -31 l0
-25 190 0 190 0 0 25 c0 23 -4 25 -46 28 -75 5 -79 15 -80 184 0 168 -11 137
125 371 107 185 136 221 195 237 35 9 42 15 39 33 -3 21 -8 22 -141 25 -121 2
-138 1 -144 -14 -8 -20 21 -44 53 -44 13 0 25 -4 28 -8 5 -8 -150 -304 -185
-354 -16 -23 -18 -20 -108 160 -50 101 -88 188 -85 193 3 5 15 9 27 9 32 0 50
15 45 36 -3 18 -16 19 -165 22 -123 2 -162 0 -166 -10z"/>
<path d="M19276 3913 c-8 -21 18 -43 50 -43 52 0 54 -16 54 -397 0 -340 -1
-354 -20 -373 -11 -11 -33 -20 -49 -20 -32 0 -56 -22 -48 -44 4 -11 40 -13
189 -12 170 1 183 2 186 20 5 23 -14 36 -54 36 -16 0 -39 6 -50 14 -17 13 -19
28 -19 183 l0 168 111 0 c124 0 140 -6 150 -61 7 -38 27 -59 49 -50 13 5 15
27 13 148 -3 135 -4 143 -23 143 -15 0 -24 -12 -36 -50 -15 -49 -17 -50 -63
-58 -27 -4 -82 -6 -125 -5 l-76 3 -3 173 -2 174 129 -4 c121 -3 131 -5 155
-27 15 -14 31 -42 36 -63 9 -31 15 -38 35 -38 25 0 25 0 25 100 l0 100 -304 0
c-278 0 -304 -1 -310 -17z"/>
<path d="M5165 2289 c-475 -27 -862 -255 -1045 -619 -118 -234 -147 -525 -79
-787 25 -97 95 -245 153 -327 49 -69 188 -206 257 -253 234 -161 598 -244 938
-214 159 14 294 39 414 76 73 23 90 32 106 59 32 52 88 206 112 305 22 92 22
94 3 108 -36 27 -56 12 -104 -75 -60 -111 -117 -180 -192 -237 -141 -106 -252
-140 -453 -139 -206 0 -353 41 -514 141 -226 141 -378 394 -422 701 -18 128
-7 396 21 500 56 212 147 361 294 478 210 167 523 230 815 163 200 -46 341
-170 404 -356 12 -37 26 -74 30 -80 11 -18 66 -16 73 2 4 9 -1 84 -9 168 -9
83 -19 187 -23 230 -6 75 -7 77 -33 77 -14 0 -75 11 -135 25 -202 45 -420 65
-611 54z"/>
<path d="M11700 2289 c-260 -14 -498 -90 -695 -222 -246 -165 -412 -430 -455
-726 -17 -113 -7 -332 19 -436 106 -426 440 -712 936 -801 147 -26 420 -24
585 4 110 18 276 60 320 81 26 12 97 169 129 285 36 131 38 152 11 166 -34 18
-58 2 -85 -57 -63 -139 -178 -259 -310 -324 -123 -60 -187 -74 -350 -73 -165
0 -270 22 -400 83 -353 165 -546 504 -545 959 1 372 140 664 394 827 320 204
834 183 1039 -44 48 -54 87 -122 118 -211 l27 -75 38 0 c46 0 44 -23 20 235
-24 259 -23 250 -51 250 -13 0 -61 9 -107 20 -198 47 -443 69 -638 59z"/>
<path d="M16340 2289 c-564 -29 -973 -302 -1126 -753 -92 -268 -79 -569 35
-812 146 -311 434 -525 814 -604 278 -58 541 -48 902 35 83 19 162 35 176 35
39 0 42 23 8 56 -49 47 -54 78 -54 324 0 200 2 229 19 263 21 43 56 65 121 74
52 7 70 23 61 56 l-5 23 -413 0 -413 -1 -3 -26 c-2 -14 3 -30 10 -36 7 -6 63
-16 123 -23 132 -14 187 -36 212 -82 16 -29 18 -59 18 -258 0 -199 -2 -229
-19 -262 -39 -79 -142 -112 -356 -112 -87 -1 -173 5 -215 13 -449 90 -718 434
-755 966 -29 429 125 762 430 928 240 130 633 142 853 25 114 -61 218 -193
258 -327 15 -51 44 -70 79 -51 19 10 21 18 17 48 -9 52 -35 284 -43 365 -6 67
-6 67 -36 67 -16 0 -73 9 -126 19 -243 49 -369 60 -572 50z"/>
<path d="M18778 2289 c-512 -37 -912 -383 -1019 -884 -23 -106 -28 -325 -10
-425 58 -315 237 -577 501 -734 182 -108 378 -158 620 -159 165 -1 256 13 388
57 470 161 767 608 739 1115 -16 288 -113 521 -296 714 -172 180 -431 298
-686 313 -49 3 -101 6 -115 8 -14 1 -69 -1 -122 -5z m262 -120 c321 -81 541
-364 614 -789 49 -287 21 -566 -78 -775 -100 -210 -254 -343 -466 -401 -95
-26 -298 -24 -403 4 -311 85 -528 349 -619 753 -20 90 -23 131 -23 309 0 226
11 296 67 442 98 257 320 435 593 477 80 12 222 3 315 -20z"/>
<path d="M13925 2249 c-22 -22 -56 -47 -76 -57 -33 -16 -37 -22 -46 -77 -12
-64 -389 -1063 -576 -1525 -96 -238 -117 -280 -152 -316 -42 -42 -99 -64 -167
-64 -56 0 -78 -10 -78 -35 0 -52 -12 -50 336 -48 179 1 329 5 334 8 17 10 11
54 -7 63 -10 5 -48 12 -84 14 -36 3 -76 11 -89 18 -21 11 -22 17 -18 74 7 81
181 606 210 632 19 18 42 19 339 19 305 0 319 -1 338 -20 24 -25 200 -559 208
-631 5 -47 3 -53 -18 -68 -14 -8 -51 -18 -84 -21 -33 -4 -70 -8 -82 -11 -25
-5 -38 -36 -25 -59 8 -15 53 -17 395 -18 410 -2 397 -3 397 43 0 24 -29 40
-73 40 -56 0 -134 28 -167 61 -43 44 -79 119 -140 294 -109 316 -509 1486
-547 1600 -35 107 -42 120 -64 122 -16 2 -36 -10 -64 -38z m84 -742 c67 -199
121 -372 121 -385 0 -15 -9 -26 -26 -32 -27 -11 -474 -14 -511 -4 -13 4 -23
14 -23 23 0 23 266 751 287 784 13 21 35 -37 152 -386z"/>
<path d="M6474 2224 c-11 -43 0 -51 78 -57 156 -11 184 -46 199 -241 11 -155
11 -1381 0 -1507 -5 -54 -16 -110 -26 -128 -19 -38 -75 -66 -152 -77 -62 -8
-80 -24 -67 -60 l9 -26 393 1 c216 0 397 3 402 6 6 3 10 19 10 35 0 33 3 32
-122 48 -94 12 -123 29 -151 90 -21 45 -22 63 -25 432 l-4 385 22 20 c21 19
38 20 599 20 449 0 581 -3 598 -13 22 -12 23 -15 25 -275 4 -366 -4 -544 -24
-583 -20 -36 -63 -59 -139 -74 -108 -22 -100 -17 -97 -56 l3 -35 393 0 c216 0
397 3 402 6 8 5 15 64 8 65 -2 1 -43 7 -92 15 -101 15 -131 33 -161 91 -20 38
-20 59 -20 884 0 842 0 845 21 891 25 54 67 75 174 87 l65 7 0 35 0 35 -397 1
-398 1 0 -34 c0 -38 -3 -36 99 -52 157 -24 161 -37 161 -497 0 -305 -2 -343
-17 -355 -13 -12 -120 -14 -598 -14 -559 0 -584 1 -604 19 -20 19 -21 27 -21
330 0 325 8 414 38 456 27 36 81 60 155 67 70 6 82 16 71 57 l-5 23 -400 0
-399 1 -6 -24z"/>
<path d="M9306 2224 c-11 -43 0 -51 85 -57 101 -8 144 -28 172 -81 l22 -41 0
-850 c0 -830 0 -851 -20 -889 -30 -59 -60 -76 -160 -91 -81 -12 -105 -23 -105
-50 0 -35 9 -36 426 -36 l409 0 3 35 c4 39 1 41 -93 51 -84 9 -139 37 -162 83
-17 35 -18 81 -18 892 0 845 0 855 21 894 27 52 71 74 164 82 81 7 100 19 93
58 l-5 23 -413 0 -414 0 -5 -23z"/>
</g>
</svg>
